<?xml version="1.0" encoding="utf-8"?>
<!-- Generator: Adobe Illustrator 14.0.0, SVG Export Plug-In . SVG Version: 6.00 Build 43363)  -->
<!DOCTYPE svg PUBLIC "-//W3C//DTD SVG 1.1//EN" "http://www.w3.org/Graphics/SVG/1.1/DTD/svg11.dtd">
<svg version="1.1" id="Layer_1" xmlns="http://www.w3.org/2000/svg" xmlns:xlink="http://www.w3.org/1999/xlink" x="0px" y="0px"
	 width="661px" height="216px" viewBox="87.445 168.14 661 216" enable-background="new 87.445 168.14 661 216"
	 xml:space="preserve">
<g>
	<g>
		<defs>
			<rect id="SVGID_1_" width="841.89" height="595.281"/>
		</defs>
		<clipPath id="SVGID_2_">
			<use xlink:href="#SVGID_1_"  overflow="visible"/>
		</clipPath>
		<path clip-path="url(#SVGID_2_)" fill="#FFFFFF" d="M184.434,352.003c0.949,4.379-1.835,8.707-6.217,9.658
			c-4.383,0.949-8.709-1.836-9.659-6.217c-0.951-4.385,1.834-8.707,6.217-9.658C179.158,344.837,183.484,347.621,184.434,352.003"/>
	</g>
	<g>
		<defs>
			<rect id="SVGID_3_" width="841.89" height="595.281"/>
		</defs>
		<clipPath id="SVGID_4_">
			<use xlink:href="#SVGID_3_"  overflow="visible"/>
		</clipPath>
		<path clip-path="url(#SVGID_4_)" fill="#FFFFFF" d="M138.741,324.792c0.95,4.383-1.829,8.705-6.216,9.658
			c-4.383,0.949-8.706-1.834-9.656-6.217c-0.952-4.385,1.831-8.707,6.215-9.658C133.47,317.625,137.791,320.41,138.741,324.792"/>
	</g>
	<g>
		<defs>
			<rect id="SVGID_5_" width="841.89" height="595.281"/>
		</defs>
		<clipPath id="SVGID_6_">
			<use xlink:href="#SVGID_5_"  overflow="visible"/>
		</clipPath>
		<path clip-path="url(#SVGID_6_)" fill="#FFFFFF" d="M159.606,342.011c0.952,4.387-1.833,8.709-6.216,9.66
			c-4.383,0.949-8.709-1.832-9.658-6.217c-0.951-4.385,1.833-8.707,6.216-9.658C154.331,334.847,158.656,337.628,159.606,342.011"/>
	</g>
	<g>
		<defs>
			<rect id="SVGID_7_" width="841.89" height="595.281"/>
		</defs>
		<clipPath id="SVGID_8_">
			<use xlink:href="#SVGID_7_"  overflow="visible"/>
		</clipPath>
		<path clip-path="url(#SVGID_8_)" fill="#FFFFFF" d="M124.2,302.25c0.95,4.383-1.833,8.707-6.217,9.658
			c-4.384,0.951-8.708-1.832-9.658-6.214c-0.95-4.386,1.832-8.71,6.217-9.659C118.925,295.083,123.25,297.866,124.2,302.25"/>
	</g>
	<g>
		<defs>
			<rect id="SVGID_9_" width="841.89" height="595.281"/>
		</defs>
		<clipPath id="SVGID_10_">
			<use xlink:href="#SVGID_9_"  overflow="visible"/>
		</clipPath>
		<path clip-path="url(#SVGID_10_)" fill="#FFFFFF" d="M118.016,249.593c0.95,4.383-1.833,8.705-6.216,9.657
			c-4.383,0.948-8.707-1.829-9.658-6.217c-0.95-4.382,1.833-8.707,6.216-9.659C112.741,242.425,117.065,245.21,118.016,249.593"/>
	</g>
	<g>
		<defs>
			<rect id="SVGID_11_" width="841.89" height="595.281"/>
		</defs>
		<clipPath id="SVGID_12_">
			<use xlink:href="#SVGID_11_"  overflow="visible"/>
		</clipPath>
		<path clip-path="url(#SVGID_12_)" fill="#FFFFFF" d="M126.971,224.489c0.95,4.383-1.833,8.71-6.218,9.659
			c-4.383,0.951-8.707-1.833-9.658-6.216c-0.951-4.384,1.834-8.708,6.217-9.659C121.697,217.321,126.019,220.104,126.971,224.489"/>
	</g>
	<g>
		<defs>
			<rect id="SVGID_13_" width="841.89" height="595.281"/>
		</defs>
		<clipPath id="SVGID_14_">
			<use xlink:href="#SVGID_13_"  overflow="visible"/>
		</clipPath>
		<path clip-path="url(#SVGID_14_)" fill="#FFFFFF" d="M143.092,203.08c0.951,4.383-1.831,8.706-6.216,9.657
			c-4.383,0.951-8.709-1.831-9.659-6.214c-0.952-4.388,1.833-8.71,6.218-9.659C137.818,195.913,142.142,198.697,143.092,203.08"/>
	</g>
	<g>
		<defs>
			<rect id="SVGID_15_" width="841.89" height="595.281"/>
		</defs>
		<clipPath id="SVGID_16_">
			<use xlink:href="#SVGID_15_"  overflow="visible"/>
		</clipPath>
		<path clip-path="url(#SVGID_16_)" fill="#FFFFFF" d="M244.82,330.603c-4.383,0.949-7.165,5.271-6.214,9.654
			c0.949,4.383,5.274,7.168,9.657,6.219c4.383-0.951,7.167-5.281,6.216-9.658C253.528,332.433,249.203,329.652,244.82,330.603"/>
	</g>
	<g>
		<defs>
			<rect id="SVGID_17_" width="841.89" height="595.281"/>
		</defs>
		<clipPath id="SVGID_18_">
			<use xlink:href="#SVGID_17_"  overflow="visible"/>
		</clipPath>
		<path clip-path="url(#SVGID_18_)" fill="#FFFFFF" d="M275.14,286.911c-4.388,0.949-7.168,5.272-6.216,9.654
			c0.949,4.388,5.272,7.17,9.656,6.22c4.386-0.951,7.168-5.277,6.217-9.66C283.845,288.742,279.522,285.958,275.14,286.911"/>
	</g>
	<g>
		<defs>
			<rect id="SVGID_19_" width="841.89" height="595.281"/>
		</defs>
		<clipPath id="SVGID_20_">
			<use xlink:href="#SVGID_19_"  overflow="visible"/>
		</clipPath>
		<path clip-path="url(#SVGID_20_)" fill="#FFFFFF" d="M263.28,311.226c-4.381,0.949-7.168,5.271-6.216,9.654
			c0.949,4.387,5.275,7.168,9.656,6.219c4.386-0.949,7.168-5.275,6.219-9.658C271.99,313.056,267.666,310.277,263.28,311.226"/>
	</g>
	<g>
		<defs>
			<rect id="SVGID_21_" width="841.89" height="595.281"/>
		</defs>
		<clipPath id="SVGID_22_">
			<use xlink:href="#SVGID_21_"  overflow="visible"/>
		</clipPath>
		<path clip-path="url(#SVGID_22_)" fill="#FFFFFF" d="M279.039,260.369c-4.383,0.949-7.168,5.273-6.216,9.657
			c0.949,4.383,5.274,7.167,9.656,6.216c4.388-0.952,7.168-5.276,6.219-9.657C287.747,262.2,283.424,259.417,279.039,260.369"/>
	</g>
	<g>
		<defs>
			<rect id="SVGID_23_" width="841.89" height="595.281"/>
		</defs>
		<clipPath id="SVGID_24_">
			<use xlink:href="#SVGID_23_"  overflow="visible"/>
		</clipPath>
		<path clip-path="url(#SVGID_24_)" fill="#FFFFFF" d="M106.4,265.518c-7.013,1.522-11.468,8.436-9.947,15.452
			c1.522,7.015,8.44,11.465,15.453,9.945c0.693-0.15,47.265-10.434,47.265-10.434l-5.451-25.146
			C153.72,255.334,106.858,265.417,106.4,265.518"/>
	</g>
	<g>
		<defs>
			<rect id="SVGID_25_" width="841.89" height="595.281"/>
		</defs>
		<clipPath id="SVGID_26_">
			<use xlink:href="#SVGID_25_"  overflow="visible"/>
		</clipPath>
		<path clip-path="url(#SVGID_26_)" fill="#FFFFFF" d="M279.319,254.618c7.013-1.52,11.467-8.434,9.945-15.452
			c-1.52-7.015-8.441-11.467-15.452-9.946c-0.457,0.099-47.044,10.276-47.044,10.276l5.453,25.146
			C232.221,264.642,278.62,254.769,279.319,254.618"/>
	</g>
	<g>
		<defs>
			<rect id="SVGID_27_" width="841.89" height="595.281"/>
		</defs>
		<clipPath id="SVGID_28_">
			<use xlink:href="#SVGID_27_"  overflow="visible"/>
		</clipPath>
		<path clip-path="url(#SVGID_28_)" fill="#FFFFFF" d="M266.3,225.751c4.383-0.951,7.168-5.273,6.219-9.656
			c-0.951-4.384-5.277-7.168-9.659-6.217c-4.383,0.95-7.166,5.274-6.216,9.657C257.595,223.922,261.917,226.7,266.3,225.751"/>
	</g>
	<g>
		<defs>
			<rect id="SVGID_29_" width="841.89" height="595.281"/>
		</defs>
		<clipPath id="SVGID_30_">
			<use xlink:href="#SVGID_29_"  overflow="visible"/>
		</clipPath>
		<path clip-path="url(#SVGID_30_)" fill="#FFFFFF" d="M247.757,206.612c4.383-0.949,7.167-5.274,6.216-9.661
			c-0.951-4.381-5.275-7.166-9.659-6.214c-4.385,0.951-7.167,5.276-6.219,9.659C239.049,204.779,243.372,207.564,247.757,206.612"/>
	</g>
	<g>
		<defs>
			<rect id="SVGID_31_" width="841.89" height="595.281"/>
		</defs>
		<clipPath id="SVGID_32_">
			<use xlink:href="#SVGID_31_"  overflow="visible"/>
		</clipPath>
		<path clip-path="url(#SVGID_32_)" fill="#FFFFFF" d="M224.212,193.802c4.383-0.949,7.17-5.274,6.218-9.657
			c-0.948-4.384-5.276-7.169-9.661-6.218c-4.383,0.951-7.163,5.276-6.214,9.659C215.507,191.971,219.83,194.753,224.212,193.802"/>
	</g>
	<g>
		<defs>
			<rect id="SVGID_33_" width="841.89" height="595.281"/>
		</defs>
		<clipPath id="SVGID_34_">
			<use xlink:href="#SVGID_33_"  overflow="visible"/>
		</clipPath>
		<path clip-path="url(#SVGID_34_)" fill="#FFFFFF" d="M237.793,366.341c0,0-3.274-15.484-4.04-20.029
			c-0.77-4.551-4.873-4.896-7.219-5.598c-2.344-0.701-2.568-1.834-2.568-1.834l-2.869-17.807c0,0-0.276-1.107,0.577-1.482
			c0,0,4.182-1.941,3.376-5.846c-0.493-2.338-4.166-3.904-4.166-3.904s-0.772-0.242-0.857-0.654
			c-0.135-0.662,0.613-1.037,0.613-1.037s3.868-2.557,3.38-5.561c-0.499-2.987-4.163-4.096-4.163-4.096s-0.547-0.141-0.699-0.856
			c-0.121-0.58,0.591-1.066,0.591-1.066s3.467-2.254,2.946-5.341c-0.515-3.098-3.853-3.693-3.853-3.693s-0.588-0.164-0.671-0.567
			c-0.052-0.239,0.289-0.763,0.289-0.763s7.1-11.097,8.246-14.32c0.171-0.473,0.063-1.104,0.063-1.104l-1.099-5.236l-6.026-27.277
			c0,0-0.177-1.052-1.422-1.798c-5.349-3.206-16.11-10.632-17.661-11.513c-1.075-0.612-1.414-1.201-1.414-1.201
			s-0.672-1.931-0.961-3.335c-0.172-0.819,0.338-1.242,0.338-1.242c6.091-7.685,6.841-11.953,5.337-17.971
			c-1.5-6.01-3.909-8.286-4.979-9.419c-1.412-1.477-0.174-1.58-0.174-1.58l2.01-0.258c2.393-0.479,1.446-2.001,1.446-2.001
			c-4.699-7.592-17.353-10.222-25.868-8.46c-0.039,0.009-0.087,0.019-0.117,0.026c-0.044,0.008-0.092,0.019-0.128,0.027
			c-8.517,1.763-19.08,9.207-20.381,18.039c0,0-0.262,1.771,2.135,1.27l1.939-0.569c0,0,1.173-0.396,0.474,1.518
			c-0.537,1.472-1.843,4.514-0.834,10.625c1.011,6.116,3.398,9.738,12.045,14.367c0,0,0.625,0.188,0.801,1.014
			c0.295,1.406,0.45,3.432,0.45,3.432s-0.12,0.643-0.826,1.66c-1.208,1.741-8.169,12.299-11.516,16.881
			c-0.851,1.165-0.598,2.204-0.598,2.204s2.501,10.587,5.889,28.115l1.078,5.25c0,0,0.147,0.613,0.495,0.994
			c2.332,2.494,12.574,9.887,12.574,9.887s0.514,0.34,0.564,0.575c0.078,0.406-0.401,0.793-0.401,0.793s-2.813,1.871-2.062,4.917
			c0.75,3.031,4.822,3.73,4.822,3.73s0.847,0.164,0.967,0.741c0.152,0.72-0.295,1.07-0.295,1.07s-2.93,2.464-2.194,5.409
			c0.745,2.945,5.313,3.756,5.313,3.756s0.835,0.049,0.974,0.705c0.085,0.416-0.535,0.939-0.535,0.939s-2.743,2.898-2.267,5.248
			c0.81,3.898,5.416,4.016,5.416,4.016c0.938,0.016,1.119,1.125,1.119,1.125l4.453,17.49c0,0,0.237,1.119-1.628,2.697
			c-1.871,1.576-5.501,3.533-4.403,8.014c1.098,4.471,4.25,19.979,4.25,19.979s-0.246,3.26,6.296,1.912
			c0.591-0.125,3.767-0.779,7.922-1.645l-0.779-23.604l9.448,21.807c0.244-0.051,0.491-0.102,0.732-0.148l-0.774-23.578
			l9.435,21.781c3.51-0.729,6.1-1.268,6.628-1.377C239.318,369.23,237.793,366.341,237.793,366.341 M174.725,258.672
			c-1.33-6.133,2.585-10.496,7.526-11.566c2.416-0.526,6.106-0.157,7.948,2.952l0.262,0.327l0.02-0.387
			c0.383-3.593,3.584-5.455,6.006-5.981c4.934-1.068,8.741,1.618,10.071,7.754c2.147,9.896-8.925,13.104-10.807,23.002l-0.269,1.037
			C190.374,267.07,177.107,269.654,174.725,258.672 M182.489,300.553c0,0,4.3,1.157,8.407,0.511
			c1.767-0.279,13.806-4.768,20.457-6.642c2.518-0.705,4.537-0.152,4.532-0.152l-23.39,9.269
			C185.706,305.792,182.489,300.553,182.489,300.553 M184.775,311.101c0,0,4.302,1.154,8.407,0.51
			c1.767-0.281,13.808-4.77,20.458-6.636c2.519-0.71,4.538-0.159,4.533-0.159l-23.392,9.268
			C187.991,316.339,184.775,311.101,184.775,311.101 M197.067,324.628c-6.79,2.256-10.004-2.979-10.004-2.979
			s4.299,1.15,8.408,0.506c1.763-0.279,13.806-4.77,20.455-6.639c2.516-0.711,4.539-0.158,4.535-0.156L197.067,324.628z"/>
	</g>
	<g>
		<defs>
			<rect id="SVGID_35_" width="841.89" height="595.281"/>
		</defs>
		<clipPath id="SVGID_36_">
			<use xlink:href="#SVGID_35_"  overflow="visible"/>
		</clipPath>
		<path clip-path="url(#SVGID_36_)" fill="#ED1C24" d="M195.448,247.401c-1.79,0.386-4.142,1.814-4.39,4.623l-0.012,0.306
			l-0.195-0.258c-1.393-2.456-4.13-2.784-5.915-2.394c-3.645,0.791-6.499,4.17-5.454,8.994c1.873,8.629,11.668,6.739,15.536,13.638
			l0.327,0.808c0.667-7.884,10.664-11.161,8.793-19.794C203.093,248.503,199.086,246.612,195.448,247.401"/>
	</g>
	<g>
		<defs>
			<rect id="SVGID_37_" width="841.89" height="595.281"/>
		</defs>
		<clipPath id="SVGID_38_">
			<use xlink:href="#SVGID_37_"  overflow="visible"/>
		</clipPath>
		<polygon clip-path="url(#SVGID_38_)" fill="#FFFFFF" points="343.682,267.007 334.093,239.737 334.093,267.007 319.138,267.007 
			319.138,199.799 334.093,199.799 334.093,226.101 341.834,199.799 358.197,199.799 358.197,200.326 346.497,232.26 
			360.132,266.48 360.132,267.007 		"/>
	</g>
	<g>
		<defs>
			<rect id="SVGID_39_" width="841.89" height="595.281"/>
		</defs>
		<clipPath id="SVGID_40_">
			<use xlink:href="#SVGID_39_"  overflow="visible"/>
		</clipPath>
		<path clip-path="url(#SVGID_40_)" fill="#FFFFFF" d="M398.454,267.008h-25.423c-5.191,0-7.566-2.552-7.566-7.83v-51.549
			c0-5.278,2.375-7.83,7.566-7.83h25.423c5.19,0,7.653,2.552,7.653,7.83v51.549C406.107,264.456,403.645,267.008,398.454,267.008
			 M391.064,212.466H380.42v41.874h10.644V212.466L391.064,212.466z"/>
	</g>
	<g>
		<defs>
			<rect id="SVGID_41_" width="841.89" height="595.281"/>
		</defs>
		<clipPath id="SVGID_42_">
			<use xlink:href="#SVGID_41_"  overflow="visible"/>
		</clipPath>
		<polygon clip-path="url(#SVGID_42_)" fill="#FFFFFF" points="416.162,267.007 416.162,199.799 431.117,199.799 431.117,253.547 
			448.71,253.547 448.71,267.007 		"/>
	</g>
	<g>
		<defs>
			<rect id="SVGID_43_" width="841.89" height="595.281"/>
		</defs>
		<clipPath id="SVGID_44_">
			<use xlink:href="#SVGID_43_"  overflow="visible"/>
		</clipPath>
		<polygon clip-path="url(#SVGID_44_)" fill="#FFFFFF" points="484.248,267.007 472.105,234.459 472.105,267.007 457.152,267.007 
			457.152,199.799 471.843,199.799 484.072,231.467 484.072,199.799 499.027,199.799 499.027,267.007 		"/>
	</g>
	<g>
		<defs>
			<rect id="SVGID_45_" width="841.89" height="595.281"/>
		</defs>
		<clipPath id="SVGID_46_">
			<use xlink:href="#SVGID_45_"  overflow="visible"/>
		</clipPath>
		<polygon clip-path="url(#SVGID_46_)" fill="#FFFFFF" points="509.05,267.007 509.05,199.799 543.888,199.799 543.888,213.083 
			524.005,213.083 524.005,226.013 540.017,226.013 540.017,238.857 524.005,238.857 524.005,253.724 544.152,253.724 
			544.152,267.007 		"/>
	</g>
	<g>
		<defs>
			<rect id="SVGID_47_" width="841.89" height="595.281"/>
		</defs>
		<clipPath id="SVGID_48_">
			<use xlink:href="#SVGID_47_"  overflow="visible"/>
		</clipPath>
		<path clip-path="url(#SVGID_48_)" fill="#FFFFFF" d="M579.16,267.007l-9.324-25.511v-11.964h7.828v-17.066h-9.5v54.541h-14.955
			v-67.208h31.844c5.191,0,7.654,2.551,7.654,7.829v23.224c0,5.278-2.463,7.829-7.654,7.829h-0.791l10.557,27.71v0.616H579.16
			L579.16,267.007z"/>
	</g>
	<g>
		<defs>
			<rect id="SVGID_49_" width="841.89" height="595.281"/>
		</defs>
		<clipPath id="SVGID_50_">
			<use xlink:href="#SVGID_49_"  overflow="visible"/>
		</clipPath>
		<polygon clip-path="url(#SVGID_50_)" fill="#FFFFFF" points="343.682,354.982 334.093,327.712 334.093,354.982 319.138,354.982 
			319.138,287.773 334.093,287.773 334.093,314.078 341.834,287.773 358.197,287.773 358.197,288.301 346.497,320.236 
			360.132,354.455 360.132,354.982 		"/>
	</g>
	<g>
		<defs>
			<rect id="SVGID_51_" width="841.89" height="595.281"/>
		</defs>
		<clipPath id="SVGID_52_">
			<use xlink:href="#SVGID_51_"  overflow="visible"/>
		</clipPath>
		<rect x="367.255" y="287.774" clip-path="url(#SVGID_52_)" fill="#FFFFFF" width="14.955" height="67.21"/>
	</g>
	<g>
		<defs>
			<rect id="SVGID_53_" width="841.89" height="595.281"/>
		</defs>
		<clipPath id="SVGID_54_">
			<use xlink:href="#SVGID_53_"  overflow="visible"/>
		</clipPath>
		<path clip-path="url(#SVGID_54_)" fill="#FFFFFF" d="M425.136,354.982h-25.334c-5.19,0-7.565-2.551-7.565-7.828v-51.551
			c0-5.278,2.375-7.83,7.565-7.83h25.334c5.277,0,7.74,2.552,7.74,7.83v15.832h-15.042v-10.994H407.19v41.875h10.645v-11.262h15.042
			v16.1C432.876,352.431,430.414,354.982,425.136,354.982"/>
	</g>
	<g>
		<defs>
			<rect id="SVGID_55_" width="841.89" height="595.281"/>
		</defs>
		<clipPath id="SVGID_56_">
			<use xlink:href="#SVGID_55_"  overflow="visible"/>
		</clipPath>
		<polygon clip-path="url(#SVGID_56_)" fill="#FFFFFF" points="467.447,354.982 457.857,327.712 457.857,354.982 442.902,354.982 
			442.902,287.773 457.857,287.773 457.857,314.078 465.599,287.773 481.962,287.773 481.962,288.301 470.261,320.236 
			483.896,354.455 483.896,354.982 		"/>
	</g>
	<g>
		<defs>
			<rect id="SVGID_57_" width="841.89" height="595.281"/>
		</defs>
		<clipPath id="SVGID_58_">
			<use xlink:href="#SVGID_57_"  overflow="visible"/>
		</clipPath>
		<polygon clip-path="url(#SVGID_58_)" fill="#FFFFFF" points="491.021,354.982 491.021,287.773 525.857,287.773 525.857,301.056 
			505.974,301.056 505.974,313.988 521.986,313.988 521.986,326.832 505.974,326.832 505.974,341.699 526.121,341.699 
			526.121,354.982 		"/>
	</g>
	<g>
		<defs>
			<rect id="SVGID_59_" width="841.89" height="595.281"/>
		</defs>
		<clipPath id="SVGID_60_">
			<use xlink:href="#SVGID_59_"  overflow="visible"/>
		</clipPath>
		<path clip-path="url(#SVGID_60_)" fill="#FFFFFF" d="M561.126,354.982l-9.324-25.512v-11.965h7.828v-17.064h-9.5v54.541h-14.955
			v-67.209h31.844c5.191,0,7.654,2.552,7.654,7.83v23.225c0,5.277-2.463,7.828-7.654,7.828h-0.791l10.559,27.711v0.615H561.126z"/>
	</g>
	<g>
		<defs>
			<rect id="SVGID_61_" width="841.89" height="595.281"/>
		</defs>
		<clipPath id="SVGID_62_">
			<use xlink:href="#SVGID_61_"  overflow="visible"/>
		</clipPath>
		<polygon clip-path="url(#SVGID_62_)" fill="#FFFFFF" points="584.699,354.982 584.699,287.773 599.654,287.773 599.654,341.523 
			617.25,341.523 617.25,354.982 		"/>
	</g>
	<g>
		<defs>
			<rect id="SVGID_63_" width="841.89" height="595.281"/>
		</defs>
		<clipPath id="SVGID_64_">
			<use xlink:href="#SVGID_63_"  overflow="visible"/>
		</clipPath>
		<rect x="625.691" y="287.774" clip-path="url(#SVGID_64_)" fill="#FFFFFF" width="14.953" height="67.21"/>
	</g>
	<g>
		<defs>
			<rect id="SVGID_65_" width="841.89" height="595.281"/>
		</defs>
		<clipPath id="SVGID_66_">
			<use xlink:href="#SVGID_65_"  overflow="visible"/>
		</clipPath>
		<path clip-path="url(#SVGID_66_)" fill="#FFFFFF" d="M683.574,354.982h-25.336c-5.189,0-7.564-2.551-7.564-7.828v-51.551
			c0-5.278,2.463-7.83,7.654-7.83h25.246c5.277,0,7.738,2.552,7.738,7.83v12.756h-15.041v-7.918h-10.645v41.875h10.645v-13.549
			h-7.828v-12.58h22.869v30.967C691.312,352.431,688.851,354.982,683.574,354.982"/>
	</g>
	<g>
		<defs>
			<rect id="SVGID_67_" width="841.89" height="595.281"/>
		</defs>
		<clipPath id="SVGID_68_">
			<use xlink:href="#SVGID_67_"  overflow="visible"/>
		</clipPath>
		<path clip-path="url(#SVGID_68_)" fill="#FFFFFF" d="M726.761,354.982l-1.584-10.029h-11.611l-1.582,10.029h-14.955v-0.176
			l14.162-67.032h16.361l14.164,67.032v0.176H726.761L726.761,354.982z M719.373,309.326l-3.693,22.873h7.389L719.373,309.326z"/>
	</g>
	<g>
		<defs>
			<rect id="SVGID_69_" width="841.89" height="595.281"/>
		</defs>
		<clipPath id="SVGID_70_">
			<use xlink:href="#SVGID_69_"  overflow="visible"/>
		</clipPath>
		<path clip-path="url(#SVGID_70_)" fill="#FFFFFF" d="M379.421,195.587c3.042-0.659,4.977-3.661,4.316-6.703
			c-0.658-3.044-3.662-4.976-6.705-4.317c-3.043,0.661-4.972,3.663-4.314,6.705C373.379,194.315,376.379,196.247,379.421,195.587"/>
	</g>
	<g>
		<defs>
			<rect id="SVGID_71_" width="841.89" height="595.281"/>
		</defs>
		<clipPath id="SVGID_72_">
			<use xlink:href="#SVGID_71_"  overflow="visible"/>
		</clipPath>
		<path clip-path="url(#SVGID_72_)" fill="#FFFFFF" d="M394.537,195.587c3.043-0.659,4.978-3.661,4.316-6.703
			c-0.658-3.044-3.663-4.976-6.707-4.317c-3.042,0.661-4.972,3.663-4.313,6.705C388.495,194.315,391.495,196.247,394.537,195.587"/>
	</g>
</g>
</svg>
