<?xml version="1.0" encoding="utf-8"?>
<!-- Generator: Adobe Illustrator 23.0.1, SVG Export Plug-In . SVG Version: 6.00 Build 0)  -->
<svg version="1.1" id="Layer_1" xmlns="http://www.w3.org/2000/svg" xmlns:xlink="http://www.w3.org/1999/xlink" x="0px" y="0px"
	 viewBox="0 0 74.8 77.5" style="enable-background:new 0 0 74.8 77.5;" xml:space="preserve">
<style type="text/css">
	.st0{clip-path:url(#SVGID_2_);fill:#E5E5E5;}
	.st1{clip-path:url(#SVGID_4_);fill:#E5E5E5;}
	.st2{clip-path:url(#SVGID_6_);fill:#E5E5E5;}
	.st3{clip-path:url(#SVGID_8_);fill:#E5E5E5;}
	.st4{clip-path:url(#SVGID_10_);fill:#E5E5E5;}
	.st5{clip-path:url(#SVGID_12_);fill:#E5E5E5;}
	.st6{clip-path:url(#SVGID_14_);fill:#E5E5E5;}
	.st7{clip-path:url(#SVGID_16_);fill:#E5E5E5;}
	.st8{clip-path:url(#SVGID_18_);fill:#E5E5E5;}
	.st9{clip-path:url(#SVGID_20_);fill:#E5E5E5;}
	.st10{clip-path:url(#SVGID_22_);fill:#E5E5E5;}
	.st11{clip-path:url(#SVGID_24_);fill:#E5E5E5;}
	.st12{clip-path:url(#SVGID_26_);fill:#E5E5E5;}
	.st13{clip-path:url(#SVGID_28_);fill:#E5E5E5;}
	.st14{clip-path:url(#SVGID_30_);fill:#E5E5E5;}
	.st15{clip-path:url(#SVGID_32_);fill:#E5E5E5;}
	.st16{clip-path:url(#SVGID_34_);fill:#E5E5E5;}
	.st17{clip-path:url(#SVGID_36_);fill:#CCCCCC;}
</style>
<g>
	<g>
		<g>
			<defs>
				<rect id="SVGID_1_" x="-30.4" y="-58.4" width="292.9" height="207.1"/>
			</defs>
			<clipPath id="SVGID_2_">
				<use xlink:href="#SVGID_1_"  style="overflow:visible;"/>
			</clipPath>
			<path class="st0" d="M33.7,64c0.3,1.5-0.6,3-2.2,3.4c-1.5,0.3-3-0.6-3.4-2.2c-0.3-1.5,0.6-3,2.2-3.4C31.9,61.5,33.4,62.5,33.7,64
				"/>
		</g>
	</g>
	<g>
		<g>
			<defs>
				<rect id="SVGID_3_" x="-30.4" y="-58.4" width="292.9" height="207.1"/>
			</defs>
			<clipPath id="SVGID_4_">
				<use xlink:href="#SVGID_3_"  style="overflow:visible;"/>
			</clipPath>
			<path class="st1" d="M17.8,54.6c0.3,1.5-0.6,3-2.2,3.4c-1.5,0.3-3-0.6-3.4-2.2c-0.3-1.5,0.6-3,2.2-3.4C16,52.1,17.5,53,17.8,54.6
				"/>
		</g>
	</g>
	<g>
		<g>
			<defs>
				<rect id="SVGID_5_" x="-30.4" y="-58.4" width="292.9" height="207.1"/>
			</defs>
			<clipPath id="SVGID_6_">
				<use xlink:href="#SVGID_5_"  style="overflow:visible;"/>
			</clipPath>
			<path class="st2" d="M25.1,60.6c0.3,1.5-0.6,3-2.2,3.4c-1.5,0.3-3-0.6-3.4-2.2c-0.3-1.5,0.6-3,2.2-3.4
				C23.3,58.1,24.8,59,25.1,60.6"/>
		</g>
	</g>
	<g>
		<g>
			<defs>
				<rect id="SVGID_7_" x="-30.4" y="-58.4" width="292.9" height="207.1"/>
			</defs>
			<clipPath id="SVGID_8_">
				<use xlink:href="#SVGID_7_"  style="overflow:visible;"/>
			</clipPath>
			<path class="st3" d="M12.8,46.7c0.3,1.5-0.6,3-2.2,3.4c-1.5,0.3-3-0.6-3.4-2.2c-0.3-1.5,0.6-3,2.2-3.4
				C11,44.2,12.5,45.2,12.8,46.7"/>
		</g>
	</g>
	<g>
		<g>
			<defs>
				<rect id="SVGID_9_" x="-30.4" y="-58.4" width="292.9" height="207.1"/>
			</defs>
			<clipPath id="SVGID_10_">
				<use xlink:href="#SVGID_9_"  style="overflow:visible;"/>
			</clipPath>
			<path class="st4" d="M10.6,28.4c0.3,1.5-0.6,3-2.2,3.4c-1.5,0.3-3-0.6-3.4-2.2c-0.3-1.5,0.6-3,2.2-3.4
				C8.8,25.9,10.3,26.9,10.6,28.4"/>
		</g>
	</g>
	<g>
		<g>
			<defs>
				<rect id="SVGID_11_" x="-30.4" y="-58.4" width="292.9" height="207.1"/>
			</defs>
			<clipPath id="SVGID_12_">
				<use xlink:href="#SVGID_11_"  style="overflow:visible;"/>
			</clipPath>
			<path class="st5" d="M13.8,19.7c0.3,1.5-0.6,3-2.2,3.4c-1.5,0.3-3-0.6-3.4-2.2c-0.3-1.5,0.6-3,2.2-3.4
				C11.9,17.2,13.4,18.1,13.8,19.7"/>
		</g>
	</g>
	<g>
		<g>
			<defs>
				<rect id="SVGID_13_" x="-30.4" y="-58.4" width="292.9" height="207.1"/>
			</defs>
			<clipPath id="SVGID_14_">
				<use xlink:href="#SVGID_13_"  style="overflow:visible;"/>
			</clipPath>
			<path class="st6" d="M19.4,12.2c0.3,1.5-0.6,3-2.2,3.4c-1.5,0.3-3-0.6-3.4-2.2c-0.3-1.5,0.6-3,2.2-3.4
				C17.5,9.7,19,10.7,19.4,12.2"/>
		</g>
	</g>
	<g>
		<g>
			<defs>
				<rect id="SVGID_15_" x="-30.4" y="-58.4" width="292.9" height="207.1"/>
			</defs>
			<clipPath id="SVGID_16_">
				<use xlink:href="#SVGID_15_"  style="overflow:visible;"/>
			</clipPath>
			<path class="st7" d="M54.8,56.6c-1.5,0.3-2.5,1.8-2.2,3.4c0.3,1.5,1.8,2.5,3.4,2.2c1.5-0.3,2.5-1.8,2.2-3.4
				C57.8,57.2,56.3,56.3,54.8,56.6"/>
		</g>
	</g>
	<g>
		<g>
			<defs>
				<rect id="SVGID_17_" x="-30.4" y="-58.4" width="292.9" height="207.1"/>
			</defs>
			<clipPath id="SVGID_18_">
				<use xlink:href="#SVGID_17_"  style="overflow:visible;"/>
			</clipPath>
			<path class="st8" d="M65.3,41.4c-1.5,0.3-2.5,1.8-2.2,3.4c0.3,1.5,1.8,2.5,3.4,2.2c1.5-0.3,2.5-1.8,2.2-3.4
				C68.3,42,66.8,41.1,65.3,41.4"/>
		</g>
	</g>
	<g>
		<g>
			<defs>
				<rect id="SVGID_19_" x="-30.4" y="-58.4" width="292.9" height="207.1"/>
			</defs>
			<clipPath id="SVGID_20_">
				<use xlink:href="#SVGID_19_"  style="overflow:visible;"/>
			</clipPath>
			<path class="st9" d="M61.2,49.8c-1.5,0.3-2.5,1.8-2.2,3.4c0.3,1.5,1.8,2.5,3.4,2.2c1.5-0.3,2.5-1.8,2.2-3.4
				C64.2,50.5,62.7,49.5,61.2,49.8"/>
		</g>
	</g>
	<g>
		<g>
			<defs>
				<rect id="SVGID_21_" x="-30.4" y="-58.4" width="292.9" height="207.1"/>
			</defs>
			<clipPath id="SVGID_22_">
				<use xlink:href="#SVGID_21_"  style="overflow:visible;"/>
			</clipPath>
			<path class="st10" d="M66.7,32.1c-1.5,0.3-2.5,1.8-2.2,3.4c0.3,1.5,1.8,2.5,3.4,2.2c1.5-0.3,2.5-1.8,2.2-3.4
				C69.7,32.8,68.2,31.8,66.7,32.1"/>
		</g>
	</g>
	<g>
		<g>
			<defs>
				<rect id="SVGID_23_" x="-30.4" y="-58.4" width="292.9" height="207.1"/>
			</defs>
			<clipPath id="SVGID_24_">
				<use xlink:href="#SVGID_23_"  style="overflow:visible;"/>
			</clipPath>
			<path class="st11" d="M6.6,33.9c-2.4,0.5-4,2.9-3.5,5.4c0.5,2.4,2.9,4,5.4,3.5C8.8,42.7,25,39.1,25,39.1l-1.9-8.7
				C23.1,30.4,6.8,33.9,6.6,33.9"/>
		</g>
	</g>
	<g>
		<g>
			<defs>
				<rect id="SVGID_25_" x="-30.4" y="-58.4" width="292.9" height="207.1"/>
			</defs>
			<clipPath id="SVGID_26_">
				<use xlink:href="#SVGID_25_"  style="overflow:visible;"/>
			</clipPath>
			<path class="st12" d="M66.8,30.1c2.4-0.5,4-2.9,3.5-5.4c-0.5-2.4-2.9-4-5.4-3.5c-0.2,0-16.4,3.6-16.4,3.6l1.9,8.7
				C50.4,33.6,66.5,30.2,66.8,30.1"/>
		</g>
	</g>
	<g>
		<g>
			<defs>
				<rect id="SVGID_27_" x="-30.4" y="-58.4" width="292.9" height="207.1"/>
			</defs>
			<clipPath id="SVGID_28_">
				<use xlink:href="#SVGID_27_"  style="overflow:visible;"/>
			</clipPath>
			<path class="st13" d="M62.2,20.1c1.5-0.3,2.5-1.8,2.2-3.4c-0.3-1.5-1.8-2.5-3.4-2.2c-1.5,0.3-2.5,1.8-2.2,3.4
				C59.2,19.5,60.7,20.4,62.2,20.1"/>
		</g>
	</g>
	<g>
		<g>
			<defs>
				<rect id="SVGID_29_" x="-30.4" y="-58.4" width="292.9" height="207.1"/>
			</defs>
			<clipPath id="SVGID_30_">
				<use xlink:href="#SVGID_29_"  style="overflow:visible;"/>
			</clipPath>
			<path class="st14" d="M55.8,13.4c1.5-0.3,2.5-1.8,2.2-3.4c-0.3-1.5-1.8-2.5-3.4-2.2c-1.5,0.3-2.5,1.8-2.2,3.4
				C52.8,12.8,54.3,13.8,55.8,13.4"/>
		</g>
	</g>
	<g>
		<g>
			<defs>
				<rect id="SVGID_31_" x="-30.4" y="-58.4" width="292.9" height="207.1"/>
			</defs>
			<clipPath id="SVGID_32_">
				<use xlink:href="#SVGID_31_"  style="overflow:visible;"/>
			</clipPath>
			<path class="st15" d="M47.6,9c1.5-0.3,2.5-1.8,2.2-3.4c-0.3-1.5-1.8-2.5-3.4-2.2c-1.5,0.3-2.5,1.8-2.2,3.4
				C44.6,8.3,46.1,9.3,47.6,9"/>
		</g>
	</g>
	<g>
		<g>
			<defs>
				<rect id="SVGID_33_" x="-30.4" y="-58.4" width="292.9" height="207.1"/>
			</defs>
			<clipPath id="SVGID_34_">
				<use xlink:href="#SVGID_33_"  style="overflow:visible;"/>
			</clipPath>
			<path class="st16" d="M52.3,69c0,0-1.1-5.4-1.4-7c-0.3-1.6-1.7-1.7-2.5-1.9c-0.8-0.2-0.9-0.6-0.9-0.6l-1-6.2c0,0-0.1-0.4,0.2-0.5
				c0,0,1.5-0.7,1.2-2c-0.2-0.8-1.4-1.4-1.4-1.4s-0.3-0.1-0.3-0.2c0-0.2,0.2-0.4,0.2-0.4s1.3-0.9,1.2-1.9c-0.2-1-1.4-1.4-1.4-1.4
				s-0.2,0-0.2-0.3c0-0.2,0.2-0.4,0.2-0.4s1.2-0.8,1-1.9c-0.2-1.1-1.3-1.3-1.3-1.3s-0.2-0.1-0.2-0.2c0-0.1,0.1-0.3,0.1-0.3
				s2.5-3.9,2.9-5c0.1-0.2,0-0.4,0-0.4L48.1,34L46,24.5c0,0-0.1-0.4-0.5-0.6c-1.9-1.1-5.6-3.7-6.1-4c-0.4-0.2-0.5-0.4-0.5-0.4
				s-0.2-0.7-0.3-1.2c-0.1-0.3,0.1-0.4,0.1-0.4c2.1-2.7,2.4-4.2,1.9-6.3c-0.5-2.1-1.4-2.9-1.7-3.3c-0.5-0.5-0.1-0.5-0.1-0.5l0.7-0.1
				C40.2,7.5,39.9,7,39.9,7c-1.6-2.6-6-3.6-9-2.9c0,0,0,0,0,0c0,0,0,0,0,0c-3,0.6-6.6,3.2-7.1,6.3c0,0-0.1,0.6,0.7,0.4l0.7-0.2
				c0,0,0.4-0.1,0.2,0.5c-0.2,0.5-0.6,1.6-0.3,3.7c0.4,2.1,1.2,3.4,4.2,5c0,0,0.2,0.1,0.3,0.4c0.1,0.5,0.2,1.2,0.2,1.2
				s0,0.2-0.3,0.6c-0.4,0.6-2.8,4.3-4,5.9c-0.3,0.4-0.2,0.8-0.2,0.8s0.9,3.7,2,9.8l0.4,1.8c0,0,0.1,0.2,0.2,0.3
				c0.8,0.9,4.4,3.4,4.4,3.4s0.2,0.1,0.2,0.2c0,0.1-0.1,0.3-0.1,0.3s-1,0.7-0.7,1.7c0.3,1.1,1.7,1.3,1.7,1.3s0.3,0.1,0.3,0.3
				c0.1,0.3-0.1,0.4-0.1,0.4s-1,0.9-0.8,1.9c0.3,1,1.8,1.3,1.8,1.3s0.3,0,0.3,0.2c0,0.1-0.2,0.3-0.2,0.3s-1,1-0.8,1.8
				c0.3,1.4,1.9,1.4,1.9,1.4c0.3,0,0.4,0.4,0.4,0.4l1.5,6.1c0,0,0.1,0.4-0.6,0.9c-0.7,0.5-1.9,1.2-1.5,2.8c0.4,1.6,1.5,7,1.5,7
				s-0.1,1.1,2.2,0.7c0.2,0,1.3-0.3,2.8-0.6l-0.3-8.2l3.3,7.6c0.1,0,0.2,0,0.3-0.1L45,63.4l3.3,7.6c1.2-0.3,2.1-0.4,2.3-0.5
				C52.8,70,52.3,69,52.3,69 M30.4,31.6c-0.5-2.1,0.9-3.7,2.6-4c0.8-0.2,2.1-0.1,2.8,1l0.1,0.1l0-0.1c0.1-1.3,1.2-1.9,2.1-2.1
				c1.7-0.4,3,0.6,3.5,2.7c0.7,3.4-3.1,4.6-3.8,8l-0.1,0.4C35.8,34.5,31.2,35.4,30.4,31.6 M33.1,46.1c0,0,1.5,0.4,2.9,0.2
				c0.6-0.1,4.8-1.7,7.1-2.3c0.9-0.2,1.6-0.1,1.6-0.1l-8.1,3.2C34.2,48,33.1,46.1,33.1,46.1 M33.9,49.8c0,0,1.5,0.4,2.9,0.2
				c0.6-0.1,4.8-1.7,7.1-2.3c0.9-0.2,1.6-0.1,1.6-0.1l-8.1,3.2C35,51.6,33.9,49.8,33.9,49.8 M38.1,54.5c-2.4,0.8-3.5-1-3.5-1
				s1.5,0.4,2.9,0.2c0.6-0.1,4.8-1.7,7.1-2.3c0.9-0.2,1.6-0.1,1.6-0.1L38.1,54.5z"/>
		</g>
	</g>
	<g>
		<g>
			<defs>
				<rect id="SVGID_35_" x="-30.4" y="-58.4" width="292.9" height="207.1"/>
			</defs>
			<clipPath id="SVGID_36_">
				<use xlink:href="#SVGID_35_"  style="overflow:visible;"/>
			</clipPath>
			<path class="st17" d="M37.6,27.6c-0.6,0.1-1.4,0.6-1.5,1.6l0,0.1L36,29.3c-0.5-0.9-1.4-1-2.1-0.8c-1.3,0.3-2.3,1.5-1.9,3.1
				c0.7,3,4.1,2.3,5.4,4.7l0.1,0.3c0.2-2.7,3.7-3.9,3.1-6.9C40.2,28,38.8,27.4,37.6,27.6"/>
		</g>
	</g>
</g>
</svg>
